<svg width="320" height="72" viewBox="0 0 320 72" fill="none" xmlns="http://www.w3.org/2000/svg">
<path d="M70.864 53.384C67.856 53.384 65.392 52.696 63.472 51.32C61.584 49.912 60.528 48.008 60.304 45.608H63.76C63.92 47.08 64.608 48.28 65.824 49.208C67.072 50.104 68.736 50.552 70.816 50.552C72.64 50.552 74.064 50.12 75.088 49.256C76.144 48.392 76.672 47.32 76.672 46.04C76.672 45.144 76.384 44.408 75.808 43.832C75.232 43.256 74.496 42.808 73.6 42.488C72.736 42.136 71.552 41.768 70.048 41.384C68.096 40.872 66.512 40.36 65.296 39.848C64.08 39.336 63.04 38.584 62.176 37.592C61.344 36.568 60.928 35.208 60.928 33.512C60.928 32.232 61.312 31.048 62.08 29.96C62.848 28.872 63.936 28.008 65.344 27.368C66.752 26.728 68.352 26.408 70.144 26.408C72.96 26.408 75.232 27.128 76.96 28.568C78.688 29.976 79.616 31.928 79.744 34.424H76.384C76.288 32.888 75.68 31.656 74.56 30.728C73.472 29.768 71.968 29.288 70.048 29.288C68.352 29.288 66.976 29.688 65.92 30.488C64.864 31.288 64.336 32.28 64.336 33.464C64.336 34.488 64.64 35.336 65.248 36.008C65.888 36.648 66.672 37.16 67.6 37.544C68.528 37.896 69.776 38.296 71.344 38.744C73.232 39.256 74.736 39.752 75.856 40.232C76.976 40.712 77.936 41.416 78.736 42.344C79.536 43.272 79.952 44.504 79.984 46.04C79.984 47.448 79.6 48.712 78.832 49.832C78.064 50.92 76.992 51.784 75.616 52.424C74.24 53.064 72.656 53.384 70.864 53.384ZM90.6768 29.624V45.896C90.6768 47.496 90.9808 48.6 91.5888 49.208C92.1968 49.816 93.2688 50.12 94.8047 50.12H97.8768V53H94.2768C91.9088 53 90.1488 52.456 88.9968 51.368C87.8448 50.248 87.2688 48.424 87.2688 45.896V29.624H83.6208V26.792H87.2688V20.216H90.6768V26.792H97.8768V29.624H90.6768ZM126.122 26.792V53H122.762V48.392C121.994 50.024 120.81 51.272 119.21 52.136C117.61 53 115.818 53.432 113.834 53.432C110.698 53.432 108.138 52.472 106.154 50.552C104.17 48.6 103.178 45.784 103.178 42.104V26.792H106.49V41.72C106.49 44.568 107.194 46.744 108.602 48.248C110.042 49.752 111.994 50.504 114.458 50.504C116.986 50.504 119.002 49.704 120.506 48.104C122.01 46.504 122.762 44.152 122.762 41.048V26.792H126.122ZM132.257 39.848C132.257 37.16 132.801 34.808 133.889 32.792C134.977 30.744 136.465 29.176 138.353 28.088C140.273 26.968 142.433 26.408 144.833 26.408C147.137 26.408 149.217 26.968 151.073 28.088C152.929 29.208 154.289 30.664 155.153 32.456V17.48H158.513V53H155.153V47.144C154.353 48.968 153.041 50.472 151.217 51.656C149.393 52.808 147.249 53.384 144.785 53.384C142.385 53.384 140.225 52.824 138.305 51.704C136.417 50.584 134.929 49 133.841 46.952C132.785 44.904 132.257 42.536 132.257 39.848ZM155.153 39.896C155.153 37.784 154.721 35.928 153.857 34.328C152.993 32.728 151.809 31.496 150.305 30.632C148.833 29.768 147.201 29.336 145.409 29.336C143.553 29.336 141.889 29.752 140.417 30.584C138.945 31.416 137.777 32.632 136.913 34.232C136.081 35.8 135.665 37.672 135.665 39.848C135.665 41.992 136.081 43.88 136.913 45.512C137.777 47.112 138.945 48.344 140.417 49.208C141.889 50.04 143.553 50.456 145.409 50.456C147.201 50.456 148.833 50.024 150.305 49.16C151.809 48.296 152.993 47.064 153.857 45.464C154.721 43.864 155.153 42.008 155.153 39.896ZM187.784 26.792L172.232 65.336H168.728L173.816 52.856L163.064 26.792H166.76L175.688 49.16L184.328 26.792H187.784ZM199.636 31.928V44.792C199.636 45.688 199.844 46.344 200.26 46.76C200.708 47.144 201.444 47.336 202.468 47.336H205.588V53H201.364C195.7 53 192.868 50.248 192.868 44.744V31.928H189.7V26.408H192.868V19.832H199.636V26.408H205.588V31.928H199.636ZM213.829 23.24C212.645 23.24 211.653 22.872 210.853 22.136C210.085 21.368 209.701 20.424 209.701 19.304C209.701 18.184 210.085 17.256 210.853 16.52C211.653 15.752 212.645 15.368 213.829 15.368C215.013 15.368 215.989 15.752 216.757 16.52C217.557 17.256 217.957 18.184 217.957 19.304C217.957 20.424 217.557 21.368 216.757 22.136C215.989 22.872 215.013 23.24 213.829 23.24ZM217.141 26.408V53H210.421V26.408H217.141ZM256.805 26.024C260.069 26.024 262.693 27.032 264.677 29.048C266.693 31.032 267.701 33.816 267.701 37.4V53H260.981V38.312C260.981 36.232 260.453 34.648 259.397 33.56C258.341 32.44 256.901 31.88 255.077 31.88C253.253 31.88 251.797 32.44 250.709 33.56C249.653 34.648 249.125 36.232 249.125 38.312V53H242.405V38.312C242.405 36.232 241.877 34.648 240.821 33.56C239.765 32.44 238.325 31.88 236.501 31.88C234.645 31.88 233.173 32.44 232.085 33.56C231.029 34.648 230.501 36.232 230.501 38.312V53H223.781V26.408H230.501V29.624C231.365 28.504 232.469 27.624 233.813 26.984C235.189 26.344 236.693 26.024 238.325 26.024C240.405 26.024 242.261 26.472 243.893 27.368C245.525 28.232 246.789 29.48 247.685 31.112C248.549 29.576 249.797 28.344 251.429 27.416C253.093 26.488 254.885 26.024 256.805 26.024ZM298.798 39.128C298.798 40.088 298.734 40.952 298.606 41.72H279.166C279.326 43.64 279.998 45.144 281.182 46.232C282.366 47.32 283.822 47.864 285.55 47.864C288.046 47.864 289.822 46.792 290.878 44.648H298.126C297.358 47.208 295.886 49.32 293.71 50.984C291.534 52.616 288.862 53.432 285.694 53.432C283.134 53.432 280.83 52.872 278.782 51.752C276.766 50.6 275.182 48.984 274.03 46.904C272.91 44.824 272.35 42.424 272.35 39.704C272.35 36.952 272.91 34.536 274.03 32.456C275.15 30.376 276.718 28.776 278.734 27.656C280.75 26.536 283.07 25.976 285.694 25.976C288.222 25.976 290.478 26.52 292.462 27.608C294.478 28.696 296.03 30.248 297.118 32.264C298.238 34.248 298.798 36.536 298.798 39.128ZM291.838 37.208C291.806 35.48 291.182 34.104 289.966 33.08C288.75 32.024 287.262 31.496 285.502 31.496C283.838 31.496 282.43 32.008 281.278 33.032C280.158 34.024 279.47 35.416 279.214 37.208H291.838ZM310.423 30.536C311.287 29.128 312.407 28.024 313.783 27.224C315.191 26.424 316.791 26.024 318.583 26.024V33.08H316.807C314.695 33.08 313.095 33.576 312.007 34.568C310.951 35.56 310.423 37.288 310.423 39.752V53H303.703V26.408H310.423V30.536Z" fill="black"/>
<path d="M25.5 57.75C37.236 57.75 46.75 48.236 46.75 36.5C46.75 24.7639 37.236 15.25 25.5 15.25C13.7639 15.25 4.25 24.7639 4.25 36.5C4.25 48.236 13.7639 57.75 25.5 57.75Z" stroke="black" stroke-width="2" stroke-linecap="round" stroke-linejoin="round"/>
<path d="M25.5 23.75V36.5L34 40.75" stroke="black" stroke-width="2" stroke-linecap="round" stroke-linejoin="round"/>
</svg>