<svg width="577" height="440" viewBox="0 0 577 440" fill="none" xmlns="http://www.w3.org/2000/svg">
<path d="M454.032 440C521.945 440 577 435.805 577 430.63C577 425.454 521.945 421.259 454.032 421.259C386.118 421.259 331.064 425.454 331.064 430.63C331.064 435.805 386.118 440 454.032 440Z" fill="white"/>
<path d="M482.723 145.547C493.122 145.547 501.552 137.125 501.552 126.735C501.552 116.345 493.122 107.923 482.723 107.923C472.324 107.923 463.894 116.345 463.894 126.735C463.894 137.125 472.324 145.547 482.723 145.547Z" fill="#2F2E41"/>
<path d="M451.341 171.526C463.721 171.526 473.757 161.499 473.757 149.13C473.757 136.762 463.721 126.735 451.341 126.735C438.962 126.735 428.926 136.762 428.926 149.13C428.926 161.499 438.962 171.526 451.341 171.526Z" fill="#2F2E41"/>
<path d="M425.499 341.891L436.494 361.325C436.494 361.325 450.871 346.96 443.26 343.158L431.419 339.356L425.499 341.891Z" fill="#FFB8B8"/>
<path d="M444.951 393.855L441.568 408.22L451.716 411.599L455.099 395.123L444.951 393.855Z" fill="#FFB8B8"/>
<path d="M423.79 248.882L421.61 271.104C421.61 271.104 382.368 307.247 395.899 320.767C409.431 334.286 426.345 345.27 426.345 345.27L433.957 339.778L416.619 316.119L451.717 291.193L443.682 395.545L455.945 398.925L483.431 293.306C483.431 293.306 491.888 259.507 471.168 242.608L423.79 248.882Z" fill="#5D5C68"/>
<path d="M448.757 407.797C448.757 407.797 442.414 399.77 439.454 406.952C437.503 411.891 435.948 416.977 434.802 422.162C434.802 422.162 423.808 438.638 440.722 436.526C457.637 434.414 452.562 426.809 452.562 426.809C453.462 426.227 454.178 425.402 454.627 424.43C455.076 423.458 455.24 422.378 455.1 421.317C454.677 417.514 452.562 408.642 452.562 408.642C452.562 408.642 450.448 404.84 448.757 407.797Z" fill="#2F2E41"/>
<path d="M431.208 352.664C431.208 352.664 427.614 356.255 433.534 362.17C433.534 362.17 434.38 378.646 441.991 376.956C449.602 375.266 452.14 354.565 451.294 352.453C450.448 350.34 452.562 334.708 447.488 335.131C442.414 335.553 436.071 341.046 436.071 341.046C436.071 341.046 447.065 351.185 436.494 357.945C436.494 357.945 433.745 356.889 431.208 352.664Z" fill="#2F2E41"/>
<path d="M462.711 189.376L430.574 190.221C437.656 180.18 438.989 168.334 436.071 155.155L457.214 159.38C453.142 170.136 453.072 179.362 462.711 189.376Z" fill="#FFB8B8"/>
<path d="M472.86 243.876L422.962 257.817L413.386 191.907C413.582 188.943 414.811 186.142 416.861 183.992C418.91 181.841 421.65 180.476 424.603 180.136L436.071 178.814L456.791 180.926L466.591 183.693C469.337 184.469 471.74 186.149 473.41 188.461C475.08 190.773 475.919 193.581 475.79 196.429L472.86 243.876Z" fill="white"/>
<path d="M425.077 245.143L417.042 254.438L397.591 233.736L404.822 197.912C405.685 193.639 407.801 189.719 410.901 186.651C414.002 183.584 417.946 181.508 422.231 180.689L427.614 179.659L415.774 227.821L425.077 245.143Z" fill="white"/>
<path d="M424.678 258.208L418.734 250.213L423.808 245.143L432.05 247.291C433.215 247.595 434.281 248.194 435.146 249.03C436.011 249.867 436.645 250.913 436.986 252.066C437.327 253.219 437.364 254.441 437.094 255.613C436.824 256.785 436.255 257.867 435.442 258.755C434.747 259.515 433.893 260.111 432.94 260.502C431.987 260.893 430.96 261.068 429.931 261.016C428.902 260.964 427.898 260.685 426.99 260.199C426.082 259.714 425.292 259.034 424.678 258.208Z" fill="#FFB8B8"/>
<path d="M463.98 247.678L472.014 256.972L491.465 236.271L484.234 200.447C483.371 196.173 481.255 192.254 478.155 189.186C475.054 186.119 471.11 184.043 466.825 183.224L461.442 182.194L473.282 230.356L463.98 247.678Z" fill="white"/>
<path d="M464.378 260.742L470.322 252.748L465.248 247.678L457.006 249.826C455.842 250.13 454.775 250.729 453.91 251.565C453.045 252.402 452.412 253.448 452.07 254.601C451.729 255.754 451.692 256.976 451.962 258.148C452.233 259.32 452.801 260.402 453.614 261.29C454.309 262.049 455.163 262.646 456.116 263.037C457.069 263.428 458.096 263.603 459.125 263.551C460.154 263.499 461.158 263.22 462.066 262.734C462.974 262.249 463.764 261.568 464.378 260.742Z" fill="#FFB8B8"/>
<path d="M448.242 165.609C456.35 165.609 462.922 159.042 462.922 150.942C462.922 142.842 456.35 136.275 448.242 136.275C440.135 136.275 433.562 142.842 433.562 150.942C433.562 159.042 440.135 165.609 448.242 165.609Z" fill="#FFB8B8"/>
<path d="M432.512 149.578H457.618L465.239 139.276C457.741 132.719 448.357 131.544 437.892 133.453L432.512 149.578Z" fill="#2F2E41"/>
<path d="M555.184 385.697C554.78 400.752 552.256 415.675 547.686 430.026C547.582 430.359 547.472 430.687 547.363 431.02H519.382C519.412 430.722 519.442 430.389 519.472 430.026C521.338 408.597 532.094 278.176 519.233 255.873C520.357 257.682 557.353 317.609 555.184 385.697Z" fill="white"/>
<path d="M553.084 430.026C552.85 430.359 552.606 430.692 552.358 431.02H531.367C531.527 430.737 531.711 430.404 531.925 430.026C535.392 423.773 545.656 405.078 555.184 385.697C565.422 364.87 574.816 343.253 574.025 335.429C574.268 337.193 581.353 390.986 553.084 430.026Z" fill="white"/>
<path d="M356.923 408.015C357.128 415.657 358.409 423.231 360.729 430.516C360.782 430.685 360.837 430.851 360.893 431.02H375.095C375.08 430.869 375.065 430.7 375.05 430.516C374.103 419.639 368.643 353.439 375.171 342.118C374.6 343.036 355.822 373.454 356.923 408.015Z" fill="white"/>
<path d="M357.989 430.516C358.107 430.685 358.231 430.854 358.357 431.02H369.012C368.931 430.876 368.837 430.707 368.729 430.516C366.969 427.342 361.759 417.852 356.923 408.015C351.726 397.443 346.958 386.471 347.36 382.5C347.236 383.395 343.64 410.7 357.989 430.516Z" fill="white"/>
<path d="M90.6878 185.608C90.6878 182.824 91.2478 180.392 92.3678 178.312C93.5198 176.232 95.1038 174.632 97.1198 173.512C99.1678 172.392 101.504 171.832 104.128 171.832C107.488 171.832 110.288 172.712 112.528 174.472C114.8 176.232 116.288 178.712 116.992 181.912H108.256C107.52 179.864 106.096 178.84 103.984 178.84C102.48 178.84 101.28 179.432 100.384 180.616C99.4878 181.768 99.0398 183.432 99.0398 185.608C99.0398 187.784 99.4878 189.464 100.384 190.648C101.28 191.8 102.48 192.376 103.984 192.376C106.096 192.376 107.52 191.352 108.256 189.304H116.992C116.288 192.44 114.8 194.904 112.528 196.696C110.256 198.488 107.456 199.384 104.128 199.384C101.504 199.384 99.1678 198.824 97.1198 197.704C95.1038 196.584 93.5198 194.984 92.3678 192.904C91.2478 190.824 90.6878 188.392 90.6878 185.608ZM133.574 199.384C130.95 199.384 128.582 198.824 126.47 197.704C124.39 196.584 122.742 194.984 121.526 192.904C120.342 190.824 119.75 188.392 119.75 185.608C119.75 182.856 120.358 180.44 121.574 178.36C122.79 176.248 124.454 174.632 126.566 173.512C128.678 172.392 131.046 171.832 133.67 171.832C136.294 171.832 138.662 172.392 140.774 173.512C142.886 174.632 144.55 176.248 145.766 178.36C146.982 180.44 147.59 182.856 147.59 185.608C147.59 188.36 146.966 190.792 145.718 192.904C144.502 194.984 142.822 196.584 140.678 197.704C138.566 198.824 136.198 199.384 133.574 199.384ZM133.574 192.28C135.142 192.28 136.47 191.704 137.558 190.552C138.678 189.4 139.238 187.752 139.238 185.608C139.238 183.464 138.694 181.816 137.606 180.664C136.55 179.512 135.238 178.936 133.67 178.936C132.07 178.936 130.742 179.512 129.686 180.664C128.63 181.784 128.102 183.432 128.102 185.608C128.102 187.752 128.614 189.4 129.638 190.552C130.694 191.704 132.006 192.28 133.574 192.28ZM178.393 172.216V199H170.185V195.352C169.353 196.536 168.217 197.496 166.777 198.232C165.369 198.936 163.801 199.288 162.073 199.288C160.025 199.288 158.217 198.84 156.649 197.944C155.081 197.016 153.865 195.688 153.001 193.96C152.137 192.232 151.705 190.2 151.705 187.864V172.216H159.865V186.76C159.865 188.552 160.329 189.944 161.257 190.936C162.185 191.928 163.433 192.424 165.001 192.424C166.601 192.424 167.865 191.928 168.793 190.936C169.721 189.944 170.185 188.552 170.185 186.76V172.216H178.393ZM200.609 171.928C203.745 171.928 206.241 172.952 208.097 175C209.985 177.016 210.929 179.8 210.929 183.352V199H202.769V184.456C202.769 182.664 202.305 181.272 201.377 180.28C200.449 179.288 199.201 178.792 197.633 178.792C196.065 178.792 194.817 179.288 193.889 180.28C192.961 181.272 192.497 182.664 192.497 184.456V199H184.289V172.216H192.497V175.768C193.329 174.584 194.449 173.656 195.857 172.984C197.265 172.28 198.849 171.928 200.609 171.928ZM231.56 192.04V199H227.384C224.408 199 222.088 198.28 220.424 196.84C218.76 195.368 217.928 192.984 217.928 189.688V179.032H214.664V172.216H217.928V165.688H226.136V172.216H231.512V179.032H226.136V189.784C226.136 190.584 226.328 191.16 226.712 191.512C227.096 191.864 227.736 192.04 228.632 192.04H231.56ZM273.664 172.216L256.864 211.72H248.032L254.176 198.088L243.28 172.216H252.448L258.64 188.968L264.784 172.216H273.664ZM288.824 199.384C286.2 199.384 283.832 198.824 281.72 197.704C279.64 196.584 277.992 194.984 276.776 192.904C275.592 190.824 275 188.392 275 185.608C275 182.856 275.608 180.44 276.824 178.36C278.04 176.248 279.704 174.632 281.816 173.512C283.928 172.392 286.296 171.832 288.92 171.832C291.544 171.832 293.912 172.392 296.024 173.512C298.136 174.632 299.8 176.248 301.016 178.36C302.232 180.44 302.84 182.856 302.84 185.608C302.84 188.36 302.216 190.792 300.968 192.904C299.752 194.984 298.072 196.584 295.928 197.704C293.816 198.824 291.448 199.384 288.824 199.384ZM288.824 192.28C290.392 192.28 291.72 191.704 292.808 190.552C293.928 189.4 294.488 187.752 294.488 185.608C294.488 183.464 293.944 181.816 292.856 180.664C291.8 179.512 290.488 178.936 288.92 178.936C287.32 178.936 285.992 179.512 284.936 180.664C283.88 181.784 283.352 183.432 283.352 185.608C283.352 187.752 283.864 189.4 284.888 190.552C285.944 191.704 287.256 192.28 288.824 192.28ZM333.643 172.216V199H325.435V195.352C324.603 196.536 323.467 197.496 322.027 198.232C320.619 198.936 319.051 199.288 317.323 199.288C315.275 199.288 313.467 198.84 311.899 197.944C310.331 197.016 309.115 195.688 308.251 193.96C307.387 192.232 306.955 190.2 306.955 187.864V172.216H315.115V186.76C315.115 188.552 315.579 189.944 316.507 190.936C317.435 191.928 318.683 192.424 320.251 192.424C321.851 192.424 323.115 191.928 324.043 190.936C324.971 189.944 325.435 188.552 325.435 186.76V172.216H333.643ZM347.747 176.68C348.707 175.208 349.907 174.056 351.347 173.224C352.787 172.36 354.387 171.928 356.147 171.928V180.616H353.891C351.843 180.616 350.307 181.064 349.283 181.96C348.259 182.824 347.747 184.36 347.747 186.568V199H339.539V172.216H347.747V176.68ZM93.0439 271.384C90.7079 271.384 88.6279 270.984 86.8039 270.184C84.9799 269.384 83.5399 268.296 82.4839 266.92C81.4279 265.512 80.8359 263.944 80.7079 262.216H88.8199C88.9159 263.144 89.3479 263.896 90.1159 264.472C90.8839 265.048 91.8279 265.336 92.9479 265.336C93.9719 265.336 94.7559 265.144 95.2999 264.76C95.8759 264.344 96.1639 263.816 96.1639 263.176C96.1639 262.408 95.7639 261.848 94.9639 261.496C94.1639 261.112 92.8679 260.696 91.0759 260.248C89.1559 259.8 87.5559 259.336 86.2759 258.856C84.9959 258.344 83.8919 257.56 82.9639 256.504C82.0359 255.416 81.5719 253.96 81.5719 252.136C81.5719 250.6 81.9879 249.208 82.8199 247.96C83.6839 246.68 84.9319 245.672 86.5639 244.936C88.2279 244.2 90.1959 243.832 92.4679 243.832C95.8279 243.832 98.4679 244.664 100.388 246.328C102.34 247.992 103.46 250.2 103.748 252.952H96.1639C96.0359 252.024 95.6199 251.288 94.9159 250.744C94.2439 250.2 93.3479 249.928 92.2279 249.928C91.2679 249.928 90.5319 250.12 90.0199 250.504C89.5079 250.856 89.2519 251.352 89.2519 251.992C89.2519 252.76 89.6519 253.336 90.4519 253.72C91.2839 254.104 92.5639 254.488 94.2919 254.872C96.2759 255.384 97.8919 255.896 99.1399 256.408C100.388 256.888 101.476 257.688 102.404 258.808C103.364 259.896 103.86 261.368 103.892 263.224C103.892 264.792 103.444 266.2 102.548 267.448C101.684 268.664 100.42 269.624 98.7559 270.328C97.1239 271.032 95.2199 271.384 93.0439 271.384ZM123.842 264.04V271H119.666C116.69 271 114.37 270.28 112.706 268.84C111.042 267.368 110.21 264.984 110.21 261.688V251.032H106.946V244.216H110.21V237.688H118.418V244.216H123.794V251.032H118.418V261.784C118.418 262.584 118.61 263.16 118.994 263.512C119.378 263.864 120.018 264.04 120.914 264.04H123.842ZM154.862 244.216V271H146.654V267.352C145.822 268.536 144.686 269.496 143.246 270.232C141.838 270.936 140.27 271.288 138.542 271.288C136.494 271.288 134.686 270.84 133.118 269.944C131.55 269.016 130.334 267.688 129.47 265.96C128.606 264.232 128.174 262.2 128.174 259.864V244.216H136.334V258.76C136.334 260.552 136.798 261.944 137.726 262.936C138.654 263.928 139.902 264.424 141.47 264.424C143.07 264.424 144.334 263.928 145.262 262.936C146.19 261.944 146.654 260.552 146.654 258.76V244.216H154.862ZM159.125 257.56C159.125 254.808 159.637 252.392 160.661 250.312C161.717 248.232 163.141 246.632 164.933 245.512C166.725 244.392 168.725 243.832 170.933 243.832C172.693 243.832 174.293 244.2 175.733 244.936C177.205 245.672 178.357 246.664 179.189 247.912V235.48H187.397V271H179.189V267.16C178.421 268.44 177.317 269.464 175.877 270.232C174.469 271 172.821 271.384 170.933 271.384C168.725 271.384 166.725 270.824 164.933 269.704C163.141 268.552 161.717 266.936 160.661 264.856C159.637 262.744 159.125 260.312 159.125 257.56ZM179.189 257.608C179.189 255.56 178.613 253.944 177.461 252.76C176.341 251.576 174.965 250.984 173.333 250.984C171.701 250.984 170.309 251.576 169.157 252.76C168.037 253.912 167.477 255.512 167.477 257.56C167.477 259.608 168.037 261.24 169.157 262.456C170.309 263.64 171.701 264.232 173.333 264.232C174.965 264.232 176.341 263.64 177.461 262.456C178.613 261.272 179.189 259.656 179.189 257.608ZM220.695 244.216L203.895 283.72H195.063L201.207 270.088L190.311 244.216H199.479L205.671 260.968L211.815 244.216H220.695ZM250.299 243.928C253.371 243.928 255.835 244.952 257.691 247C259.547 249.016 260.475 251.8 260.475 255.352V271H252.315V256.456C252.315 254.664 251.851 253.272 250.923 252.28C249.995 251.288 248.747 250.792 247.179 250.792C245.611 250.792 244.363 251.288 243.435 252.28C242.507 253.272 242.043 254.664 242.043 256.456V271H233.835V235.48H242.043V247.816C242.875 246.632 244.011 245.688 245.451 244.984C246.891 244.28 248.507 243.928 250.299 243.928ZM278.371 271.384C275.747 271.384 273.379 270.824 271.267 269.704C269.187 268.584 267.539 266.984 266.323 264.904C265.139 262.824 264.547 260.392 264.547 257.608C264.547 254.856 265.155 252.44 266.371 250.36C267.587 248.248 269.251 246.632 271.363 245.512C273.475 244.392 275.843 243.832 278.467 243.832C281.091 243.832 283.459 244.392 285.571 245.512C287.683 246.632 289.347 248.248 290.563 250.36C291.779 252.44 292.387 254.856 292.387 257.608C292.387 260.36 291.763 262.792 290.515 264.904C289.299 266.984 287.619 268.584 285.475 269.704C283.363 270.824 280.995 271.384 278.371 271.384ZM278.371 264.28C279.939 264.28 281.267 263.704 282.355 262.552C283.475 261.4 284.035 259.752 284.035 257.608C284.035 255.464 283.491 253.816 282.403 252.664C281.347 251.512 280.035 250.936 278.467 250.936C276.867 250.936 275.539 251.512 274.483 252.664C273.427 253.784 272.899 255.432 272.899 257.608C272.899 259.752 273.411 261.4 274.435 262.552C275.491 263.704 276.803 264.28 278.371 264.28ZM323.19 244.216V271H314.982V267.352C314.15 268.536 313.014 269.496 311.574 270.232C310.166 270.936 308.598 271.288 306.87 271.288C304.822 271.288 303.014 270.84 301.446 269.944C299.878 269.016 298.662 267.688 297.798 265.96C296.934 264.232 296.502 262.2 296.502 259.864V244.216H304.662V258.76C304.662 260.552 305.126 261.944 306.054 262.936C306.982 263.928 308.23 264.424 309.798 264.424C311.398 264.424 312.662 263.928 313.59 262.936C314.518 261.944 314.982 260.552 314.982 258.76V244.216H323.19ZM337.293 248.68C338.253 247.208 339.453 246.056 340.893 245.224C342.333 244.36 343.933 243.928 345.693 243.928V252.616H343.437C341.389 252.616 339.853 253.064 338.829 253.96C337.805 254.824 337.293 256.36 337.293 258.568V271H329.085V244.216H337.293V248.68ZM360.513 271.384C358.177 271.384 356.097 270.984 354.273 270.184C352.449 269.384 351.009 268.296 349.953 266.92C348.897 265.512 348.305 263.944 348.177 262.216H356.289C356.385 263.144 356.817 263.896 357.585 264.472C358.353 265.048 359.297 265.336 360.417 265.336C361.441 265.336 362.225 265.144 362.769 264.76C363.345 264.344 363.633 263.816 363.633 263.176C363.633 262.408 363.233 261.848 362.433 261.496C361.633 261.112 360.337 260.696 358.545 260.248C356.625 259.8 355.025 259.336 353.745 258.856C352.465 258.344 351.361 257.56 350.433 256.504C349.505 255.416 349.041 253.96 349.041 252.136C349.041 250.6 349.457 249.208 350.289 247.96C351.153 246.68 352.401 245.672 354.033 244.936C355.697 244.2 357.665 243.832 359.937 243.832C363.297 243.832 365.937 244.664 367.857 246.328C369.809 247.992 370.929 250.2 371.217 252.952H363.633C363.505 252.024 363.089 251.288 362.385 250.744C361.713 250.2 360.817 249.928 359.697 249.928C358.737 249.928 358.001 250.12 357.489 250.504C356.977 250.856 356.721 251.352 356.721 251.992C356.721 252.76 357.121 253.336 357.921 253.72C358.753 254.104 360.033 254.488 361.761 254.872C363.745 255.384 365.361 255.896 366.609 256.408C367.857 256.888 368.945 257.688 369.873 258.808C370.833 259.896 371.329 261.368 371.361 263.224C371.361 264.792 370.913 266.2 370.017 267.448C369.153 268.664 367.889 269.624 366.225 270.328C364.593 271.032 362.689 271.384 360.513 271.384Z" fill="white"/>
</svg>
