<svg width="561" height="375" viewBox="0 0 561 375" fill="none" xmlns="http://www.w3.org/2000/svg">
<g clip-path="url(#clip0)">
<path d="M506.266 66.2862H492.953C493.565 67.7876 493.799 69.4165 493.634 71.0295C493.468 72.6425 492.909 74.1901 492.005 75.5359C491.1 76.8817 489.879 77.9844 488.449 78.7469C487.018 79.5094 485.422 79.9083 483.801 79.9084H425.374C423.753 79.9083 422.157 79.5094 420.726 78.7469C419.296 77.9844 418.074 76.8817 417.17 75.5359C416.266 74.1901 415.707 72.6425 415.541 71.0295C415.376 69.4165 415.609 67.7876 416.222 66.2862H403.788C398.269 66.2862 392.977 68.4789 389.075 72.382C385.173 76.285 382.981 81.5787 382.981 87.0984V350.874C382.981 356.394 385.173 361.688 389.075 365.591C392.977 369.494 398.269 371.687 403.788 371.687H506.266C511.784 371.687 517.076 369.494 520.978 365.591C524.88 361.688 527.072 356.394 527.072 350.874V87.0984C527.072 81.5786 524.88 76.285 520.978 72.382C517.076 68.4789 511.784 66.2862 506.266 66.2862Z" fill="#F0F0F0"/>
<path d="M506.385 167.304C503.785 159.832 499.587 153.017 494.083 147.335C488.579 141.652 481.902 137.239 474.518 134.403C467.134 131.567 459.221 130.377 451.329 130.914C443.438 131.452 435.759 133.705 428.828 137.516C421.896 141.328 415.88 146.605 411.197 152.982C406.514 159.358 403.278 166.679 401.715 174.435C400.152 182.191 400.298 190.194 402.145 197.887C403.992 205.581 407.494 212.778 412.407 218.978C412.895 219.594 413.403 220.209 413.921 220.804C413.96 220.843 413.989 220.882 414.028 220.921C415.3 222.388 416.653 223.783 418.079 225.101C418.45 225.443 418.841 225.794 419.231 226.126C419.973 226.79 420.734 227.425 421.525 228.03C421.837 228.274 422.14 228.518 422.462 228.753C423.712 229.7 425.01 230.579 426.348 231.419L426.406 231.448C426.786 231.682 427.177 231.917 427.568 232.141C428.27 232.561 428.993 232.961 429.715 233.342L430.174 233.577C431.228 234.123 432.302 234.641 433.405 235.119C433.63 235.217 433.874 235.315 434.098 235.412C434.118 235.422 434.128 235.422 434.147 235.432C434.665 235.647 435.182 235.852 435.709 236.047C437.441 236.709 439.207 237.276 441 237.746C445.576 238.966 450.292 239.583 455.028 239.582C456.756 239.582 458.464 239.504 460.153 239.338C464.012 238.981 467.821 238.212 471.516 237.043C471.525 237.043 471.536 237.033 471.545 237.033C473.879 236.289 476.159 235.386 478.369 234.328C478.378 234.319 478.398 234.319 478.408 234.309C478.906 234.075 479.384 233.821 479.872 233.577C479.95 233.537 480.028 233.498 480.106 233.459C480.497 233.254 480.888 233.049 481.278 232.834C482.254 232.297 483.211 231.731 484.157 231.126C484.421 230.969 484.675 230.803 484.939 230.628C485.309 230.384 485.68 230.13 486.042 229.866C486.52 229.534 486.998 229.192 487.467 228.841C487.613 228.733 487.769 228.626 487.916 228.509C497.061 221.565 503.774 211.903 507.092 200.908C510.41 189.913 510.163 178.149 506.385 167.304L506.385 167.304Z" fill="white"/>
<path d="M483.211 226.243C478.586 223.805 473.758 221.773 468.782 220.17L468.148 213.149L442.416 210.376L439.145 219.349L429.911 222.816C429.58 222.941 429.266 223.105 428.973 223.304H428.963C428.448 223.652 428.009 224.102 427.673 224.626C427.338 225.15 427.112 225.737 427.011 226.351C426.912 226.961 426.936 227.585 427.08 228.186L427.568 230.188C428.27 230.608 428.993 231.008 429.715 231.389L430.174 231.624C431.229 232.17 432.302 232.688 433.405 233.166C433.63 233.264 433.874 233.362 434.098 233.459C434.118 233.469 434.128 233.469 434.147 233.479C434.665 233.694 435.182 233.899 435.709 234.094C437.441 234.756 439.207 235.323 441 235.793C445.576 237.013 450.292 237.63 455.028 237.629C456.756 237.629 458.464 237.551 460.153 237.385C464.012 237.028 467.821 236.259 471.516 235.09C471.526 235.09 471.536 235.08 471.545 235.08C473.879 234.336 476.159 233.433 478.369 232.375C478.378 232.366 478.398 232.366 478.408 232.356C478.906 232.122 479.384 231.868 479.872 231.624C479.95 231.584 480.028 231.545 480.106 231.506C480.497 231.301 480.888 231.096 481.278 230.881C482.254 230.344 483.211 229.778 484.157 229.173C484.421 229.016 484.675 228.85 484.939 228.675C485.31 228.431 485.68 228.177 486.042 227.913C485.134 227.327 484.187 226.771 483.211 226.243Z" fill="#E4E4E4"/>
<path d="M434.918 230.569L433.308 223.294H429.1C429.058 223.295 429.015 223.298 428.973 223.304H428.963C427.451 223.432 425.995 223.936 424.727 224.769C423.867 225.318 423.102 226.004 422.462 226.8C423.712 227.747 425.01 228.626 426.348 229.466L426.406 229.495C426.787 229.729 427.177 229.964 427.568 230.188C428.27 230.608 428.993 231.008 429.715 231.389L430.174 231.624C431.228 232.17 432.302 232.688 433.405 233.166C433.63 233.264 433.874 233.362 434.098 233.459C434.118 233.469 434.128 233.469 434.147 233.479C434.665 233.694 435.182 233.899 435.709 234.094L434.918 230.569Z" fill="#E4E4E4"/>
<path d="M454.272 205.937C464.507 205.937 472.805 197.637 472.805 187.399C472.805 177.161 464.507 168.861 454.272 168.861C444.037 168.861 435.739 177.161 435.739 187.399C435.739 197.637 444.037 205.937 454.272 205.937Z" fill="#A0616A"/>
<path d="M441.829 178.37C443.748 180.641 446.994 181.282 449.989 181.544C456.072 182.078 464.916 181.212 470.86 179.84C471.284 183.953 470.128 188.387 472.55 191.771C473.685 187.675 474.345 183.462 474.517 179.214C474.698 177.392 474.46 175.553 473.822 173.837C473.48 172.976 472.905 172.229 472.16 171.68C471.415 171.131 470.532 170.802 469.609 170.73C470.99 169.682 472.607 168.991 474.319 168.716L468.434 165.758L469.945 164.206L459.292 163.554L462.377 161.594C457.733 160.955 453.035 160.807 448.36 161.151C446.189 161.311 443.919 161.617 442.16 162.875C440.401 164.133 439.384 166.634 440.476 168.481C439.109 168.706 437.822 169.276 436.737 170.137C435.651 170.998 434.804 172.123 434.274 173.403C433.605 175.439 433.443 177.607 433.804 179.72C434.205 183.109 434.993 186.441 436.151 189.652L441.829 178.37Z" fill="#2F2E41"/>
<path d="M506.385 167.304C503.785 159.832 499.587 153.017 494.083 147.335C488.579 141.652 481.902 137.239 474.518 134.403C467.134 131.567 459.221 130.377 451.329 130.914C443.438 131.452 435.759 133.705 428.828 137.516C421.896 141.328 415.88 146.605 411.197 152.982C406.514 159.358 403.278 166.679 401.715 174.435C400.152 182.191 400.298 190.194 402.145 197.887C403.992 205.581 407.494 212.778 412.407 218.978C412.895 219.594 413.403 220.209 413.921 220.804C413.96 220.843 413.989 220.882 414.028 220.921C415.3 222.388 416.653 223.783 418.079 225.101C418.45 225.443 418.841 225.794 419.231 226.126C419.973 226.79 420.734 227.425 421.525 228.03C421.837 228.274 422.14 228.518 422.462 228.753C423.712 229.7 425.01 230.579 426.348 231.419L426.406 231.448C426.786 231.682 427.177 231.917 427.568 232.141C428.27 232.561 428.993 232.961 429.715 233.342L430.174 233.577C431.228 234.123 432.302 234.641 433.405 235.119C433.63 235.217 433.874 235.315 434.098 235.412C434.118 235.422 434.128 235.422 434.147 235.432C434.665 235.647 435.182 235.852 435.709 236.047C437.441 236.709 439.207 237.276 441 237.746C445.576 238.966 450.292 239.583 455.028 239.582C456.756 239.582 458.464 239.504 460.153 239.338C464.012 238.981 467.821 238.212 471.516 237.043C471.525 237.043 471.536 237.033 471.545 237.033C473.879 236.289 476.159 235.386 478.369 234.328C478.378 234.319 478.398 234.319 478.408 234.309C478.906 234.075 479.384 233.821 479.872 233.577C479.95 233.537 480.028 233.498 480.106 233.459C480.497 233.254 480.888 233.049 481.278 232.834C482.254 232.297 483.211 231.731 484.157 231.126C484.421 230.969 484.675 230.803 484.939 230.628C485.309 230.384 485.68 230.13 486.042 229.866C486.52 229.534 486.998 229.192 487.467 228.841C487.613 228.733 487.769 228.626 487.916 228.509C497.061 221.565 503.774 211.903 507.092 200.908C510.41 189.913 510.163 178.149 506.385 167.304L506.385 167.304ZM486.12 226.136C485.798 226.39 485.466 226.634 485.134 226.858C484.811 227.103 484.49 227.337 484.157 227.552C483.874 227.757 483.591 227.952 483.298 228.138L483.211 228.196C482.996 228.343 482.781 228.479 482.566 228.616C481.756 229.124 480.936 229.612 480.106 230.081C480.019 230.13 479.93 230.178 479.843 230.227C479.472 230.432 479.101 230.628 478.73 230.823C478.681 230.852 478.622 230.872 478.574 230.901L478.515 230.93C478.047 231.174 477.568 231.409 477.09 231.633C475.244 232.522 473.343 233.292 471.399 233.938C471.145 234.026 470.891 234.114 470.638 234.192C467.14 235.304 463.534 236.038 459.88 236.379C458.279 236.525 456.658 236.604 455.028 236.604C450.549 236.613 446.088 236.028 441.762 234.865C439.542 234.286 437.366 233.548 435.251 232.659C435.143 232.61 435.026 232.571 434.918 232.522C434.802 232.473 434.694 232.434 434.587 232.385C434.469 232.336 434.362 232.288 434.245 232.229C433.327 231.829 432.419 231.389 431.531 230.93L431.102 230.706C430.018 230.139 428.954 229.534 427.919 228.889C427.617 228.704 427.304 228.509 427.011 228.304C426.933 228.255 426.865 228.206 426.787 228.157C426.094 227.698 425.401 227.22 424.727 226.722C424.268 226.38 423.809 226.038 423.36 225.687C422.609 225.12 421.886 224.515 421.184 223.89C420.813 223.577 420.451 223.236 420.1 222.913C418.716 221.635 417.406 220.279 416.176 218.851C415.766 218.383 415.365 217.914 414.985 217.426C414.898 217.329 414.817 217.228 414.741 217.123C408.398 209.117 404.583 199.403 403.782 189.219C402.981 179.036 405.231 168.845 410.244 159.945C415.257 151.046 422.806 143.841 431.929 139.251C441.052 134.661 451.335 132.892 461.467 134.172C471.599 135.451 481.12 139.72 488.816 146.434C496.513 153.148 502.036 162.003 504.68 171.869C507.325 181.736 506.972 192.166 503.667 201.831C500.361 211.496 494.252 219.958 486.12 226.136H486.12Z" fill="#E4E4E4"/>
<path d="M492.655 282.228H417.558C415.169 282.226 412.879 281.275 411.191 279.585C409.503 277.895 408.554 275.603 408.554 273.214C408.554 270.825 409.503 268.533 411.191 266.843C412.879 265.152 415.169 264.202 417.558 264.2H492.655C495.045 264.2 497.337 265.149 499.027 266.84C500.718 268.53 501.667 270.823 501.667 273.214C501.667 275.605 500.718 277.897 499.027 279.588C497.337 281.278 495.045 282.228 492.655 282.228Z" fill="white"/>
<path d="M492.655 310.022H417.558C415.169 310.02 412.879 309.069 411.191 307.379C409.503 305.689 408.554 303.397 408.554 301.008C408.554 298.618 409.503 296.327 411.191 294.637C412.879 292.946 415.169 291.996 417.558 291.994H492.655C495.045 291.994 497.337 292.943 499.027 294.634C500.718 296.324 501.667 298.617 501.667 301.008C501.667 303.398 500.718 305.691 499.027 307.382C497.337 309.072 495.045 310.022 492.655 310.022Z" fill="white"/>
<path d="M172.436 67.8279H159.124C159.736 69.3293 159.97 70.9582 159.804 72.5712C159.639 74.1842 159.079 75.7318 158.175 77.0776C157.271 78.4233 156.05 79.526 154.619 80.2885C153.189 81.051 151.593 81.4499 149.972 81.45H91.5445C89.9234 81.4499 88.3273 81.0511 86.8967 80.2886C85.4661 79.5261 84.245 78.4233 83.3408 77.0776C82.4366 75.7318 81.8772 74.1842 81.7117 72.5712C81.5463 70.9582 81.78 69.3292 82.3923 67.8279H69.9582C64.44 67.8279 59.1478 70.0206 55.2459 73.9236C51.3439 77.8266 49.1519 83.1203 49.1519 88.64V352.416C49.1519 357.936 51.3439 363.229 55.2459 367.132C59.1478 371.036 64.44 373.228 69.9582 373.228H172.436C177.955 373.228 183.247 371.036 187.149 367.132C191.051 363.229 193.243 357.936 193.243 352.416V88.64C193.243 83.1203 191.051 77.8266 187.149 73.9236C183.247 70.0206 177.955 67.8279 172.436 67.8279Z" fill="#F0F0F0"/>
<path d="M172.556 168.845C169.956 161.373 165.757 154.558 160.254 148.876C154.75 143.194 148.073 138.781 140.689 135.945C133.305 133.109 125.391 131.918 117.5 132.456C109.609 132.994 101.93 135.247 94.9983 139.058C88.067 142.869 82.0502 148.147 77.3675 154.523C72.6848 160.9 69.4489 168.221 67.8856 175.977C66.3222 183.732 66.469 191.736 68.3157 199.429C70.1624 207.122 73.6645 214.32 78.5778 220.52C79.0659 221.135 79.5736 221.75 80.0912 222.346C80.1303 222.385 80.1594 222.424 80.1985 222.463C81.4709 223.93 82.8233 225.325 84.2495 226.642C84.6209 226.984 85.0112 227.336 85.4016 227.668C86.1433 228.332 86.905 228.966 87.6958 229.572C88.008 229.816 88.3106 230.06 88.6329 230.294C89.8822 231.242 91.1806 232.12 92.5181 232.96L92.5767 232.989C92.9571 233.224 93.3479 233.458 93.7383 233.683C94.4409 234.103 95.1635 234.503 95.8857 234.884L96.3447 235.118C97.3991 235.665 98.473 236.183 99.5759 236.661C99.8004 236.759 100.044 236.856 100.269 236.954C100.289 236.964 100.298 236.964 100.318 236.973C100.835 237.188 101.352 237.393 101.88 237.589C103.611 238.25 105.378 238.817 107.171 239.288C111.747 240.508 116.463 241.125 121.199 241.123C122.926 241.123 124.635 241.045 126.324 240.879C130.182 240.523 133.992 239.754 137.687 238.585C137.696 238.585 137.706 238.575 137.716 238.575C140.05 237.831 142.33 236.927 144.539 235.87C144.549 235.86 144.569 235.86 144.579 235.851C145.076 235.616 145.555 235.362 146.043 235.118C146.121 235.079 146.199 235.04 146.277 235.001C146.667 234.796 147.058 234.591 147.448 234.376C148.425 233.839 149.381 233.273 150.328 232.667C150.592 232.511 150.846 232.345 151.109 232.169C151.48 231.925 151.851 231.671 152.212 231.408C152.69 231.076 153.169 230.734 153.637 230.382C153.784 230.275 153.94 230.168 154.086 230.05C163.232 223.107 169.945 213.445 173.263 202.45C176.581 191.455 176.333 179.691 172.556 168.845L172.556 168.845Z" fill="white"/>
<path d="M158.826 283.77H83.7284C81.3383 283.77 79.0462 282.82 77.3562 281.129C75.6661 279.439 74.7167 277.146 74.7167 274.755C74.7167 272.365 75.6661 270.072 77.3562 268.381C79.0462 266.691 81.3383 265.741 83.7284 265.741H158.826C161.215 265.743 163.505 266.694 165.193 268.384C166.881 270.075 167.829 272.366 167.829 274.755C167.829 277.145 166.881 279.436 165.193 281.127C163.505 282.817 161.215 283.767 158.826 283.77Z" fill="white"/>
<path d="M158.826 311.564H83.7284C82.5442 311.565 81.3715 311.332 80.2772 310.88C79.1829 310.427 78.1884 309.764 77.3507 308.926C76.513 308.089 75.8485 307.095 75.3951 306.001C74.9417 304.907 74.7083 303.734 74.7083 302.549C74.7083 301.365 74.9417 300.192 75.3951 299.098C75.8485 298.004 76.513 297.01 77.3507 296.172C78.1884 295.335 79.1829 294.671 80.2772 294.219C81.3715 293.766 82.5442 293.534 83.7284 293.535H158.826C161.216 293.535 163.508 294.485 165.198 296.175C166.888 297.866 167.838 300.159 167.838 302.549C167.838 304.94 166.888 307.233 165.198 308.923C163.508 310.614 161.216 311.564 158.826 311.564Z" fill="white"/>
<path d="M102.036 199.454L105.194 210.398L145.558 209.686L145.205 189.633C144.925 173.76 133.71 160.07 117.842 160.35C101.974 160.63 91.8842 174.049 92.1642 189.922L94.4693 210.588L101.05 210.471L102.036 199.454Z" fill="#2F2E41"/>
<path d="M119.646 207.107C129.648 207.107 137.756 198.996 137.756 188.991C137.756 178.987 129.648 170.876 119.646 170.876C109.644 170.876 101.535 178.987 101.535 188.991C101.535 198.996 109.644 207.107 119.646 207.107Z" fill="#FFB6B6"/>
<path d="M155.694 217.242L155.283 224.861C146.592 233.905 134.735 239.228 122.203 239.713C109.672 240.199 97.4389 235.809 88.0739 227.465C87.6553 227.097 87.245 226.712 86.8432 226.318C89.3545 223.823 96.2858 217.66 103.979 217.091L138.668 214.905C138.668 214.905 151.81 213.365 155.694 217.242Z" fill="#E4E4E4"/>
<path d="M139.471 176.271C139.447 174.884 139.013 173.535 138.224 172.394C138.14 172.277 138.056 172.168 137.973 172.059C137.302 171.203 136.442 170.513 135.46 170.044C134.478 169.575 133.402 169.339 132.314 169.355L119.297 169.589L106.289 169.815C104.425 169.853 102.652 170.627 101.358 171.969C100.064 173.31 99.3535 175.11 99.3828 176.975L102.48 183.213L104.263 186.796L104.556 186.629C115.815 180.299 120.419 180.215 135.319 186.101L135.62 186.219L136.801 183.196L139.479 176.338L139.471 176.271Z" fill="#2F2E41"/>
<path d="M159.803 222.368C158.757 223.707 157.812 223.683 156.632 224.905C153.652 228.012 148.897 230.672 145.18 232.891L144.368 218.338L155.694 217.242C157.579 218.464 159.02 220.261 159.803 222.368Z" fill="#E4E4E4"/>
<path d="M172.556 168.845C169.956 161.373 165.757 154.558 160.254 148.876C154.75 143.194 148.073 138.781 140.689 135.945C133.305 133.109 125.391 131.918 117.5 132.456C109.609 132.994 101.93 135.247 94.9983 139.058C88.067 142.869 82.0502 148.147 77.3675 154.523C72.6848 160.9 69.4489 168.221 67.8856 175.977C66.3222 183.732 66.469 191.736 68.3157 199.429C70.1624 207.122 73.6645 214.32 78.5778 220.52C79.0659 221.135 79.5736 221.75 80.0912 222.346C80.1303 222.385 80.1594 222.424 80.1985 222.463C81.4709 223.93 82.8233 225.325 84.2495 226.642C84.6209 226.984 85.0112 227.336 85.4016 227.668C86.1433 228.332 86.905 228.966 87.6958 229.572C88.008 229.816 88.3106 230.06 88.6329 230.294C89.8822 231.242 91.1806 232.12 92.5181 232.96L92.5767 232.989C92.9571 233.224 93.3479 233.458 93.7383 233.683C94.4409 234.103 95.1635 234.503 95.8857 234.884L96.3447 235.118C97.3991 235.665 98.473 236.183 99.5759 236.661C99.8004 236.759 100.044 236.856 100.269 236.954C100.289 236.964 100.298 236.964 100.318 236.973C100.835 237.188 101.352 237.393 101.88 237.589C103.611 238.25 105.378 238.817 107.171 239.288C111.747 240.508 116.463 241.125 121.199 241.123C122.926 241.123 124.635 241.045 126.324 240.879C130.182 240.523 133.992 239.754 137.687 238.585C137.696 238.585 137.706 238.575 137.716 238.575C140.05 237.831 142.33 236.927 144.539 235.87C144.549 235.86 144.569 235.86 144.579 235.851C145.076 235.616 145.555 235.362 146.043 235.118C146.121 235.079 146.199 235.04 146.277 235.001C146.667 234.796 147.058 234.591 147.448 234.376C148.425 233.839 149.381 233.273 150.328 232.667C150.592 232.511 150.846 232.345 151.109 232.169C151.48 231.925 151.851 231.671 152.212 231.408C152.69 231.076 153.169 230.734 153.637 230.382C153.784 230.275 153.94 230.168 154.086 230.05C163.232 223.107 169.945 213.445 173.263 202.45C176.581 191.455 176.333 179.691 172.556 168.845L172.556 168.845ZM152.29 227.677C151.968 227.931 151.636 228.175 151.304 228.4C150.982 228.644 150.66 228.879 150.328 229.093C150.045 229.298 149.762 229.494 149.469 229.679L149.381 229.738C149.166 229.884 148.952 230.021 148.737 230.158C147.927 230.665 147.107 231.154 146.277 231.622C146.189 231.671 146.101 231.72 146.013 231.769C145.642 231.974 145.272 232.169 144.901 232.365C144.852 232.394 144.793 232.413 144.744 232.443L144.686 232.472C144.217 232.716 143.739 232.95 143.261 233.175C141.415 234.064 139.514 234.834 137.569 235.479C137.315 235.567 137.062 235.655 136.808 235.733C133.311 236.846 129.704 237.579 126.05 237.921C124.449 238.067 122.829 238.145 121.199 238.145C116.719 238.154 112.258 237.57 107.932 236.407C105.712 235.827 103.536 235.09 101.421 234.2C101.313 234.151 101.196 234.112 101.089 234.064C100.972 234.015 100.864 233.976 100.757 233.927C100.64 233.878 100.533 233.829 100.415 233.771C99.4979 233.37 98.5898 232.931 97.7018 232.472L97.2723 232.247C96.1884 231.681 95.1245 231.076 94.0897 230.431C93.787 230.246 93.4748 230.05 93.1817 229.845C93.104 229.796 93.0354 229.748 92.9572 229.699C92.2641 229.24 91.5711 228.761 90.8975 228.263C90.439 227.922 89.98 227.58 89.531 227.228C88.7793 226.662 88.0567 226.057 87.3541 225.432C86.9832 225.119 86.6219 224.777 86.2706 224.455C84.8864 223.177 83.5762 221.821 82.3463 220.393C81.9363 219.924 81.536 219.456 81.1551 218.967C81.0685 218.871 80.9871 218.77 80.9111 218.665C74.5685 210.659 70.7534 200.945 69.9525 190.761C69.1516 180.578 71.4012 170.386 76.4142 161.487C81.4273 152.587 88.9767 145.383 98.0997 140.793C107.223 136.202 117.506 134.434 127.637 135.713C137.769 136.993 147.29 141.262 154.987 147.976C162.683 154.69 168.206 163.544 170.851 173.411C173.496 183.277 173.143 193.708 169.837 203.373C166.532 213.038 160.423 221.499 152.29 227.677Z" fill="#E4E4E4"/>
<path d="M333.544 213.793C334.308 213.947 335.096 213.931 335.853 213.747C336.61 213.563 337.318 213.215 337.926 212.728C338.534 212.241 339.028 211.626 339.373 210.927C339.718 210.228 339.905 209.462 339.922 208.683L380.19 170.772L371.129 163.542L334.329 203.177C333.018 203.235 331.774 203.772 330.833 204.686C329.892 205.6 329.319 206.828 329.222 208.136C329.126 209.445 329.512 210.744 330.308 211.786C331.105 212.829 332.256 213.543 333.544 213.793H333.544Z" fill="#FFB7B7"/>
<path d="M374.484 176.9L366.65 167.717C366.427 167.455 366.263 167.149 366.169 166.819C366.075 166.488 366.054 166.141 366.106 165.802C366.158 165.462 366.283 165.138 366.471 164.851C366.66 164.564 366.908 164.321 367.2 164.139L377.398 157.753C378.741 156.619 380.479 156.064 382.23 156.21C383.981 156.356 385.603 157.191 386.74 158.532C387.876 159.872 388.435 161.609 388.293 163.361C388.152 165.113 387.321 166.737 385.984 167.877L378.102 176.92C377.876 177.179 377.598 177.386 377.285 177.527C376.972 177.668 376.632 177.741 376.288 177.739C375.945 177.737 375.606 177.661 375.295 177.516C374.983 177.371 374.707 177.161 374.484 176.9Z" fill="white"/>
<path d="M353.418 363.972L343.572 363.972L338.889 325.986L353.419 325.987L353.418 363.972Z" fill="#FFB7B7"/>
<path d="M355.928 373.518L324.183 373.517V373.116C324.183 369.838 325.485 366.694 327.802 364.376C330.119 362.058 333.262 360.756 336.539 360.756H336.54L355.929 360.757L355.928 373.518Z" fill="#2F2E41"/>
<path d="M432.117 363.972L422.272 363.972L417.588 325.986L432.119 325.987L432.117 363.972Z" fill="#FFB7B7"/>
<path d="M434.628 373.518L402.882 373.517V373.116C402.883 369.838 404.184 366.694 406.502 364.376C408.819 362.058 411.962 360.756 415.239 360.756H415.239L434.628 360.757L434.628 373.518Z" fill="#2F2E41"/>
<path d="M405.634 197.036L415.558 160.36L402.684 153.121H384.714L377.724 160.601C377.724 160.601 366.046 168.728 368.873 177.732L373.432 198.242L366.459 230.816L331.322 279.557L323.005 327.433L355.746 336.018L391.151 266.286L408.317 343.498L440.251 341.892L429.247 248.271C429.247 248.271 426.11 219.751 409.667 201.944L405.634 197.036Z" fill="#2F2E41"/>
<path d="M426.129 229.486C426.683 228.938 427.109 228.274 427.379 227.543C427.648 226.812 427.754 226.03 427.689 225.254C427.624 224.477 427.39 223.724 427.002 223.048C426.615 222.372 426.084 221.789 425.447 221.34L417.747 169.378L406.695 172.869L417.758 222.914C417.075 224.035 416.827 225.367 417.061 226.658C417.294 227.949 417.993 229.11 419.025 229.92C420.057 230.73 421.35 231.133 422.66 231.053C423.969 230.973 425.204 230.416 426.129 229.486V229.486Z" fill="#FFB7B7"/>
<path d="M419.65 177.533L407.66 178.916C407.319 178.956 406.973 178.921 406.647 178.815C406.32 178.708 406.021 178.533 405.768 178.3C405.515 178.067 405.316 177.783 405.183 177.466C405.05 177.15 404.987 176.808 404.998 176.465L405.386 164.435C405.195 162.688 405.703 160.936 406.801 159.563C407.899 158.191 409.496 157.31 411.242 157.114C412.989 156.917 414.741 157.422 416.116 158.517C417.491 159.611 418.376 161.207 418.576 162.953L421.684 174.54C421.773 174.872 421.789 175.219 421.732 175.558C421.675 175.896 421.545 176.219 421.352 176.503C421.159 176.787 420.907 177.026 420.613 177.204C420.319 177.382 419.991 177.494 419.65 177.533V177.533Z" fill="white"/>
<path d="M373.602 142.691V127.238C373.606 121.748 375.788 116.484 379.67 112.604C383.552 108.723 388.816 106.543 394.304 106.543C399.792 106.543 405.055 108.723 408.937 112.604C412.819 116.484 415.002 121.748 415.005 127.238V142.691C415.004 143.428 414.711 144.135 414.19 144.657C413.668 145.178 412.962 145.472 412.224 145.472H376.383C375.646 145.472 374.939 145.178 374.418 144.657C373.896 144.135 373.603 143.428 373.602 142.691Z" fill="#2F2E41"/>
<path d="M390.05 145.113C398.432 145.113 405.227 138.316 405.227 129.931C405.227 121.546 398.432 114.749 390.05 114.749C381.668 114.749 374.872 121.546 374.872 129.931C374.872 138.316 381.668 145.113 390.05 145.113Z" fill="#FFB7B7"/>
<path d="M368.705 128.474C368.71 124.131 370.437 119.968 373.507 116.897C376.577 113.826 380.739 112.099 385.081 112.094H388.17C392.512 112.099 396.674 113.826 399.744 116.897C402.814 119.968 404.541 124.131 404.546 128.474V128.783H398.016L395.789 122.545L395.344 128.783H391.969L390.846 125.636L390.621 128.783H368.705L368.705 128.474Z" fill="#2F2E41"/>
<path d="M388.556 147.21C388.25 146.795 388.067 146.302 388.028 145.787C387.99 145.272 388.097 144.757 388.338 144.301C391.613 138.071 396.197 126.56 390.112 119.462L389.675 118.951H407.34V145.481L391.292 148.314C391.13 148.342 390.965 148.357 390.8 148.357C390.362 148.357 389.93 148.253 389.54 148.054C389.15 147.854 388.813 147.565 388.556 147.21Z" fill="#2F2E41"/>
<path d="M317.229 373.356H192.723C185.715 373.348 178.996 370.56 174.04 365.603C169.085 360.646 166.297 353.925 166.289 346.914V26.442C166.297 19.4316 169.085 12.7106 174.04 7.7535C178.996 2.79638 185.715 0.00796494 192.723 0H209.55L208.901 1.59283C208.228 3.24133 207.972 5.02993 208.153 6.80104C208.335 8.57216 208.949 10.2714 209.942 11.7492C210.935 13.2269 212.275 14.4378 213.846 15.275C215.417 16.1123 217.17 16.5503 218.95 16.5504H289.935C291.715 16.5503 293.467 16.1123 295.038 15.275C296.609 14.4378 297.95 13.2269 298.942 11.7492C299.935 10.2715 300.55 8.57226 300.731 6.80114C300.913 5.03002 300.656 3.2414 299.984 1.59283L299.335 0H317.229C324.237 0.0079505 330.956 2.79635 335.912 7.75347C340.868 12.7106 343.655 19.4316 343.663 26.442V346.914C343.655 353.925 340.868 360.646 335.912 365.603C330.956 370.56 324.237 373.348 317.229 373.356Z" fill="white"/>
<path d="M317.229 373.356H192.723C185.715 373.348 178.996 370.56 174.04 365.603C169.085 360.646 166.297 353.925 166.289 346.914V26.442C166.297 19.4316 169.085 12.7106 174.04 7.7535C178.996 2.79638 185.715 0.00796494 192.723 0H209.55L208.901 1.59283C208.228 3.24133 207.972 5.02993 208.153 6.80104C208.335 8.57216 208.949 10.2714 209.942 11.7492C210.935 13.2269 212.275 14.4378 213.846 15.275C215.417 16.1123 217.17 16.5503 218.95 16.5504H289.935C291.715 16.5503 293.467 16.1123 295.038 15.275C296.609 14.4378 297.95 13.2269 298.942 11.7492C299.935 10.2715 300.55 8.57226 300.731 6.80114C300.913 5.03002 300.656 3.2414 299.984 1.59283L299.335 0H317.229C324.237 0.0079505 330.956 2.79635 335.912 7.75347C340.868 12.7106 343.655 19.4316 343.663 26.442V346.914C343.655 353.925 340.868 360.646 335.912 365.603C330.956 370.56 324.237 373.348 317.229 373.356ZM192.723 2.31246C186.328 2.31976 180.196 4.86434 175.674 9.38793C171.152 13.9115 168.608 20.0447 168.601 26.442V346.914C168.608 353.311 171.152 359.445 175.674 363.968C180.196 368.492 186.328 371.036 192.723 371.044H317.229C323.624 371.036 329.756 368.492 334.278 363.968C338.8 359.445 341.344 353.311 341.351 346.914V26.442C341.344 20.0447 338.8 13.9115 334.278 9.38789C329.756 4.8643 323.624 2.31974 317.229 2.31246H302.661C303.178 4.26258 303.241 6.30553 302.844 8.28369C302.447 10.2618 301.601 12.1223 300.371 13.7216C299.141 15.3209 297.561 16.6162 295.751 17.5076C293.942 18.399 291.952 18.8627 289.935 18.8629H218.95C216.933 18.8622 214.943 18.3981 213.134 17.5065C211.325 16.6149 209.744 15.3196 208.515 13.7204C207.285 12.1212 206.44 10.2609 206.043 8.28301C205.646 6.30509 205.708 4.26239 206.225 2.31244L192.723 2.31246Z" fill="#3F3D56"/>
<path d="M320.861 113.366C317.702 104.288 312.601 96.0082 305.915 89.1046C299.228 82.201 291.116 76.8394 282.145 73.3939C273.174 69.9484 263.559 68.5018 253.972 69.155C244.384 69.8082 235.055 72.5454 226.633 77.1759C218.212 81.8064 210.902 88.2186 205.213 95.9654C199.524 103.712 195.592 112.607 193.693 122.03C191.793 131.453 191.972 141.177 194.215 150.523C196.459 159.87 200.714 168.615 206.683 176.148C207.276 176.895 207.893 177.642 208.521 178.366C208.569 178.413 208.604 178.461 208.652 178.508C210.198 180.29 211.841 181.985 213.574 183.586C214.025 184.001 214.499 184.428 214.973 184.832C215.875 185.638 216.8 186.41 217.761 187.145C219.636 188.624 221.592 189.998 223.619 191.262L223.691 191.297C225.007 192.116 226.347 192.875 227.711 193.599L228.269 193.884C229.55 194.548 230.854 195.177 232.194 195.758C232.467 195.877 232.764 195.995 233.036 196.114C233.06 196.126 233.072 196.126 233.096 196.138C235.804 197.264 238.586 198.203 241.422 198.949C246.981 200.431 252.711 201.181 258.464 201.18C260.564 201.18 262.639 201.085 264.691 200.883C269.379 200.45 274.008 199.515 278.496 198.095C278.509 198.095 278.52 198.083 278.532 198.083C281.367 197.18 284.138 196.082 286.822 194.797C286.834 194.785 286.858 194.785 286.87 194.773C287.474 194.489 288.056 194.18 288.649 193.884C288.744 193.836 288.839 193.789 288.934 193.741C289.408 193.492 289.882 193.243 290.357 192.982C291.543 192.329 292.705 191.641 293.856 190.906C294.176 190.716 294.484 190.514 294.804 190.301C295.848 189.613 296.88 188.877 297.876 188.13C298.054 187.999 298.244 187.869 298.422 187.726C309.533 179.29 317.688 167.551 321.72 154.193C325.751 140.835 325.45 126.543 320.861 113.366H320.861Z" fill="white"/>
<path d="M280.268 162.332C285.737 162.332 290.17 157.897 290.17 152.427C290.17 146.957 285.737 142.522 280.268 142.522C274.799 142.522 270.366 146.957 270.366 152.427C270.366 157.897 274.799 162.332 280.268 162.332Z" fill="#2F2E41"/>
<path d="M283.027 142.795C284.741 142.795 286.425 143.24 287.916 144.086C289.406 144.933 290.651 146.151 291.53 147.623C292.408 149.095 292.89 150.77 292.927 152.484C292.965 154.198 292.557 155.892 291.744 157.401C292.602 156.327 293.227 155.085 293.58 153.756C293.932 152.427 294.003 151.038 293.789 149.68C293.576 148.321 293.081 147.022 292.338 145.865C291.594 144.708 290.618 143.719 289.471 142.96C288.324 142.202 287.032 141.69 285.677 141.459C284.322 141.227 282.933 141.281 281.6 141.615C280.266 141.95 279.017 142.559 277.932 143.404C276.846 144.248 275.949 145.31 275.296 146.52C276.222 145.358 277.398 144.419 278.737 143.774C280.075 143.129 281.542 142.794 283.028 142.795H283.027Z" fill="#2F2E41"/>
<path d="M261.764 152.406C277.829 152.406 290.852 139.379 290.852 123.309C290.852 107.24 277.829 94.2128 261.764 94.2128C245.699 94.2128 232.676 107.24 232.676 123.309C232.676 139.379 245.699 152.406 261.764 152.406Z" fill="#2F2E41"/>
<path d="M238.934 105.257C243.946 99.6181 250.953 96.1481 258.474 95.5788C265.995 95.0095 273.444 97.3854 279.247 102.205C279.01 101.979 278.773 101.751 278.527 101.531C272.78 96.3884 265.227 93.7385 257.527 94.1642C249.827 94.5899 242.612 98.0564 237.467 103.802C232.321 109.547 229.667 117.101 230.087 124.803C230.508 132.505 233.968 139.724 239.709 144.875C239.764 144.925 239.819 144.974 239.875 145.023C240.121 145.242 240.375 145.45 240.628 145.66C235.163 140.46 231.932 133.339 231.616 125.8C231.3 118.262 233.925 110.896 238.935 105.256L238.934 105.257Z" fill="#2F2E41"/>
<path d="M261.517 152.159C271.864 152.159 280.252 143.769 280.252 133.419C280.252 123.07 271.864 114.68 261.517 114.68C251.171 114.68 242.783 123.07 242.783 133.419C242.783 143.769 251.171 152.159 261.517 152.159Z" fill="#A0616A"/>
<path d="M295.042 182.245V188.533C293.891 189.269 292.729 189.957 291.543 190.609C291.068 190.87 290.594 191.119 290.12 191.368C290.025 191.416 289.93 191.463 289.835 191.511C289.242 191.807 288.66 192.116 288.056 192.401C288.044 192.412 288.02 192.412 288.008 192.424C285.324 193.709 282.554 194.807 279.718 195.71C279.706 195.71 279.695 195.722 279.682 195.722C275.194 197.143 270.565 198.077 265.877 198.51C263.825 198.712 261.75 198.807 259.65 198.807C253.897 198.808 248.167 198.059 242.608 196.576C239.772 195.831 236.99 194.891 234.282 193.765C234.258 193.753 234.246 193.753 234.222 193.741C233.95 193.622 233.653 193.504 233.38 193.385C232.04 192.804 230.736 192.175 229.455 191.511L228.897 191.226C227.533 190.502 226.193 189.743 224.877 188.925L224.805 188.889C222.778 187.626 220.822 186.251 218.947 184.772C217.986 184.037 217.061 183.266 216.159 182.459C215.685 182.056 215.211 181.628 214.76 181.213C213.027 179.612 211.384 177.917 209.838 176.136C210.043 174.9 210.344 173.682 210.739 172.494L210.751 172.482C210.822 172.279 210.905 172.081 211 171.888C211.065 171.718 211.141 171.552 211.225 171.39C213.348 167.416 217.191 166.431 221.959 166.218C224.651 166.099 227.628 166.23 230.771 166.194C232.432 166.182 234.151 166.123 235.871 165.969C246.723 164.984 244.755 158.578 245.24 155.125C245.727 151.78 248.739 154.675 248.941 154.864L248.953 154.876C255.094 157.751 261.888 158.942 268.641 158.329C269.803 158.186 270.965 158.103 272.127 158.068C275.187 158.032 274.523 158.91 273.468 159.634C272.956 159.971 272.421 160.272 271.867 160.535C271.867 160.535 271.38 163.501 270.882 167.938C270.408 172.185 285.363 173.656 288.293 174.582H288.305C289.977 175.197 291.469 176.22 292.646 177.558C293.822 178.897 294.646 180.508 295.042 182.245Z" fill="#3F3D56"/>
<path d="M245.494 109.995V128.739H249.833L255.354 122.822L254.615 128.739H273.793L272.607 122.822L274.979 128.739H278.036V109.995H245.494Z" fill="#2F2E41"/>
<path d="M242.536 132.187C243.353 132.187 244.015 130.972 244.015 129.475C244.015 127.977 243.353 126.763 242.536 126.763C241.719 126.763 241.057 127.977 241.057 129.475C241.057 130.972 241.719 132.187 242.536 132.187Z" fill="#A0616A"/>
<path d="M280.499 132.187C281.316 132.187 281.978 130.972 281.978 129.475C281.978 127.977 281.316 126.763 280.499 126.763C279.683 126.763 279.021 127.977 279.021 129.475C279.021 130.972 279.683 132.187 280.499 132.187Z" fill="#A0616A"/>
<path d="M320.861 113.366C317.702 104.288 312.601 96.0082 305.915 89.1046C299.228 82.201 291.116 76.8394 282.145 73.3939C273.174 69.9484 263.559 68.5018 253.972 69.155C244.384 69.8082 235.055 72.5454 226.633 77.1759C218.212 81.8064 210.902 88.2186 205.213 95.9654C199.524 103.712 195.592 112.607 193.693 122.03C191.793 131.453 191.972 141.177 194.215 150.523C196.459 159.87 200.714 168.615 206.683 176.148C207.276 176.895 207.893 177.642 208.521 178.366C208.569 178.413 208.604 178.461 208.652 178.508C210.198 180.29 211.841 181.985 213.574 183.586C214.025 184.001 214.499 184.428 214.973 184.832C215.875 185.638 216.8 186.41 217.761 187.145C219.636 188.624 221.592 189.998 223.619 191.262L223.691 191.297C225.007 192.116 226.347 192.875 227.711 193.599L228.269 193.884C229.55 194.548 230.854 195.177 232.194 195.758C232.467 195.877 232.764 195.995 233.036 196.114C233.06 196.126 233.072 196.126 233.096 196.138C235.804 197.264 238.586 198.203 241.422 198.949C246.981 200.431 252.711 201.181 258.464 201.18C260.564 201.18 262.639 201.085 264.691 200.883C269.379 200.45 274.008 199.515 278.496 198.095C278.509 198.095 278.52 198.083 278.532 198.083C281.367 197.18 284.138 196.082 286.822 194.797C286.834 194.785 286.858 194.785 286.87 194.773C287.474 194.489 288.056 194.18 288.649 193.884C288.744 193.836 288.839 193.789 288.934 193.741C289.408 193.492 289.882 193.243 290.357 192.982C291.543 192.329 292.705 191.641 293.856 190.906C294.176 190.716 294.484 190.514 294.804 190.301C295.848 189.613 296.88 188.877 297.876 188.13C298.054 187.999 298.244 187.869 298.422 187.726C309.533 179.29 317.688 167.551 321.72 154.193C325.751 140.835 325.45 126.543 320.861 113.366H320.861ZM296.239 184.844C295.848 185.152 295.445 185.449 295.042 185.721C294.65 186.018 294.259 186.303 293.856 186.564C293.512 186.813 293.168 187.05 292.811 187.276C292.515 187.477 292.218 187.667 291.922 187.857C290.938 188.474 289.942 189.067 288.934 189.636C288.827 189.696 288.72 189.755 288.613 189.814C288.162 190.063 287.712 190.301 287.261 190.538C287.202 190.574 287.13 190.597 287.071 190.633L287 190.668C286.431 190.965 285.85 191.25 285.268 191.523C283.026 192.603 280.716 193.538 278.354 194.322C278.046 194.429 277.737 194.536 277.429 194.631C273.18 195.983 268.798 196.874 264.359 197.288C262.414 197.466 260.445 197.561 258.464 197.561C253.022 197.572 247.602 196.862 242.347 195.45C239.649 194.745 237.006 193.849 234.436 192.768C234.163 192.662 233.89 192.543 233.629 192.436C233.487 192.377 233.357 192.318 233.214 192.246C232.099 191.76 230.997 191.226 229.917 190.668L229.395 190.396C228.079 189.708 226.786 188.972 225.529 188.189C225.067 187.904 224.604 187.608 224.153 187.299C222.73 186.362 221.342 185.354 219.99 184.298C219.077 183.61 218.199 182.874 217.345 182.115C216.895 181.735 216.456 181.32 216.029 180.929C214.347 179.375 212.756 177.728 211.261 175.993C210.763 175.424 210.277 174.854 209.814 174.261C209.709 174.144 209.61 174.021 209.517 173.893C201.812 164.167 197.177 152.365 196.204 139.992C195.231 127.62 197.964 115.238 204.054 104.426C210.145 93.6133 219.317 84.8605 230.401 79.2836C241.485 73.7067 253.978 71.5584 266.287 73.1127C278.597 74.667 290.164 79.8534 299.515 88.0105C308.866 96.1676 315.576 106.926 318.789 118.913C322.003 130.9 321.574 143.573 317.558 155.315C313.541 167.058 306.12 177.337 296.239 184.844Z" fill="#3F3D56"/>
<path d="M304.062 252.895H212.823C209.921 252.893 207.138 251.738 205.087 249.685C203.036 247.631 201.883 244.847 201.883 241.944C201.883 239.041 203.036 236.256 205.087 234.203C207.138 232.149 209.921 230.994 212.823 230.992H304.062C305.501 230.991 306.925 231.273 308.255 231.823C309.584 232.373 310.792 233.179 311.81 234.196C312.827 235.213 313.635 236.421 314.186 237.751C314.736 239.08 315.02 240.505 315.02 241.944C315.02 243.383 314.736 244.808 314.186 246.137C313.635 247.466 312.827 248.674 311.81 249.691C310.792 250.708 309.584 251.515 308.255 252.064C306.925 252.614 305.501 252.897 304.062 252.895Z" fill="white"/>
<path d="M304.062 286.663H212.823C209.921 286.661 207.138 285.506 205.087 283.453C203.036 281.399 201.883 278.615 201.883 275.712C201.883 272.809 203.036 270.024 205.087 267.971C207.138 265.917 209.921 264.762 212.823 264.76H304.062C305.501 264.759 306.925 265.041 308.255 265.591C309.584 266.141 310.792 266.947 311.81 267.964C312.827 268.981 313.635 270.189 314.186 271.518C314.736 272.848 315.02 274.273 315.02 275.712C315.02 277.151 314.736 278.576 314.186 279.905C313.635 281.234 312.827 282.442 311.81 283.459C310.792 284.476 309.584 285.283 308.255 285.832C306.925 286.382 305.501 286.665 304.062 286.663Z" fill="white"/>
<path d="M255.249 334.577C261.296 334.577 266.198 329.674 266.198 323.626C266.198 317.577 261.296 312.674 255.249 312.674C249.202 312.674 244.3 317.577 244.3 323.626C244.3 329.674 249.202 334.577 255.249 334.577Z" fill="#3F3D56"/>
<path d="M308.9 323.625C303.718 321.703 297.289 318.422 293.303 314.946L296.112 322.712H276.234V324.537H296.112L293.303 332.306C297.289 328.83 303.718 325.548 308.9 323.625Z" fill="#3F3D56"/>
<path d="M201.597 323.625C206.78 321.703 213.209 318.422 217.194 314.946L214.386 322.712H234.264V324.537H214.386L217.194 332.306C213.209 328.83 206.78 325.548 201.597 323.625Z" fill="#3F3D56"/>
<path d="M560.229 374.229L0.770604 375C0.566227 375 0.370221 374.919 0.225704 374.774C0.0811879 374.63 0 374.434 0 374.229C0 374.025 0.0811879 373.829 0.225704 373.684C0.370221 373.54 0.566227 373.458 0.770604 373.458L560.229 372.688C560.434 372.688 560.63 372.769 560.774 372.913C560.919 373.058 561 373.254 561 373.458C561 373.663 560.919 373.859 560.774 374.003C560.63 374.148 560.434 374.229 560.229 374.229Z" fill="#3F3D56"/>
</g>
<defs>
<clipPath id="clip0">
<rect width="561" height="375" fill="white"/>
</clipPath>
</defs>
</svg>